<svg width="819" height="819" viewBox="0 0 819 819" fill="none" xmlns="http://www.w3.org/2000/svg">
    <path fill-rule="evenodd" clip-rule="evenodd"
        d="M512.607 114.096C529.955 111.124 549.383 110.132 567.666 113.225C600.319 118.749 630.48 133.926 654.322 156.679C669.907 157.031 685.223 153.961 698.775 149.584C710.245 145.88 719.933 141.407 726.722 137.87C730.098 136.112 732.706 134.612 734.401 133.596C735.248 133.089 735.863 132.706 736.228 132.474L736.553 132.267C746.681 125.52 760.168 126.833 768.798 135.415C777.429 144 778.82 157.477 772.122 167.643C765.034 178.402 755.194 197.583 744.17 219.073C742.436 222.452 740.673 225.888 738.888 229.358C732.564 241.642 726.081 254.057 720.038 264.708C716.244 271.396 712.185 278.186 708.093 284.054V293.397C708.354 327.714 704.417 361.852 696.429 395.063C691.404 415.959 684.774 436.488 676.576 456.464C655.335 508.221 623.995 555.226 584.385 594.734C544.775 634.242 497.69 665.462 445.88 686.569C394.115 707.658 338.671 718.23 282.779 717.669C201.756 717.739 122.437 694.396 54.3669 650.445C44.3409 643.972 40.1197 631.428 44.1921 620.211C48.2644 608.993 59.5493 602.078 71.3932 603.544C81.643 604.813 91.9627 605.432 102.291 605.398C139.4 605.294 175.802 597.095 209.035 581.648C198.472 576.84 188.387 570.91 178.963 563.922C151.263 543.383 130.655 514.719 120.006 481.92C117.238 473.397 119.13 464.048 124.993 457.271C125.098 457.149 125.204 457.029 125.311 456.91C119.048 451.326 113.188 445.245 107.793 438.706C83.5194 409.283 70.1535 372.379 69.9562 334.236L69.9555 334.104L69.9559 332.398C69.9559 323.325 74.759 314.931 82.5806 310.333C84.5633 309.168 86.6649 308.291 88.8267 307.702C77.2811 284.665 71.277 259.227 71.3209 233.419C71.3072 204.182 78.9443 175.45 93.4734 150.078C97.6677 142.754 105.204 137.968 113.616 137.286C122.029 136.605 130.237 140.115 135.556 146.668C168.403 187.141 209.397 220.251 255.875 243.847C279.767 255.977 304.834 265.453 330.625 272.157C345.085 275.915 359.773 278.801 374.609 280.795C373.956 256.114 378.83 231.446 389.058 208.653C404.062 175.217 429.74 147.706 462.064 130.435C475.754 123.121 493.926 117.296 512.607 114.096ZM127.739 371.654C132.163 384.106 138.745 395.788 147.278 406.131C164.044 426.454 187.316 440.362 213.156 445.502C224.666 447.792 233.144 457.616 233.725 469.337C234.305 481.058 226.841 491.672 215.614 495.089C206.315 497.919 196.788 499.891 187.152 500.986C193.519 509.193 201.009 516.545 209.452 522.806C228.602 537.006 251.703 544.884 275.54 545.343C286.355 545.551 295.871 552.535 299.312 562.79C302.752 573.046 299.374 584.356 290.874 591.045C255.071 619.217 213.67 638.861 169.801 648.89C206.161 660.534 244.293 666.529 282.865 666.482L283.162 666.481C332.304 666.992 381.055 657.706 426.567 639.165C472.08 620.623 513.442 593.198 548.237 558.492C583.032 523.787 610.562 482.495 629.221 437.03C636.422 419.483 642.246 401.449 646.661 383.093C653.685 353.89 657.143 323.871 656.907 293.695L656.906 293.495V275.409C656.906 269.203 659.161 263.209 663.251 258.542C665.614 255.844 669.749 249.615 675.517 239.449C680.999 229.787 687.066 218.188 693.376 205.931C693.757 205.189 694.141 204.444 694.525 203.696C678.16 207.25 659.61 209.112 640.165 207.011C634.006 206.345 628.298 203.469 624.099 198.915C606.939 180.306 584.087 167.918 559.128 163.695C548.053 161.822 534.664 162.251 521.249 164.549C506.674 167.045 493.989 171.414 486.186 175.583C463.859 187.512 446.123 206.514 435.759 229.61C425.395 252.705 422.99 278.587 428.921 303.196C430.812 311.042 428.891 319.32 423.739 325.532C418.587 331.744 410.807 335.162 402.747 334.754C373.965 333.298 345.488 328.908 317.749 321.698C288.405 314.072 259.886 303.29 232.703 289.489C192.682 269.171 156.234 242.653 124.674 210.995C123.234 218.353 122.503 225.861 122.508 233.418L122.508 233.484C122.473 252.277 127.085 270.788 135.934 287.367C144.783 303.947 157.594 318.081 173.227 328.512C182.714 334.842 186.868 346.686 183.413 357.555C179.958 368.425 169.727 375.696 158.326 375.386C148 375.105 137.76 373.849 127.739 371.654Z"
        fill="black" fill-opacity="0.05" />
</svg>