<?xml version="1.0" standalone="no"?>
<!DOCTYPE svg PUBLIC "-//W3C//DTD SVG 20010904//EN"
 "http://www.w3.org/TR/2001/REC-SVG-20010904/DTD/svg10.dtd">
<svg version="1.0" xmlns="http://www.w3.org/2000/svg"
 width="1008.000000pt" height="1008.000000pt" viewBox="0 0 1008.000000 1008.000000"
 preserveAspectRatio="xMidYMid meet">
<metadata>
Created by potrace 1.14, written by Peter Selinger 2001-2017
</metadata>
<g transform="translate(0.000000,1008.000000) scale(0.100000,-0.100000)"
fill="#000000" stroke="none">
<path d="M4818 9229 c-39 -20 -89 -75 -96 -106 -9 -41 -7 -860 2 -892 14 -47
67 -98 115 -111 54 -14 120 3 159 41 55 54 57 74 56 535 -1 394 -2 423 -20
455 -10 18 -28 41 -39 51 -28 24 -99 48 -116 37 -7 -4 -16 -4 -19 1 -3 4 -22
-1 -42 -11z"/>
<path d="M2888 8427 c-70 -17 -136 -108 -123 -172 2 -11 4 -30 4 -43 1 -27
596 -629 649 -656 32 -17 79 -21 117 -12 11 2 23 5 27 5 18 2 76 69 87 100 26
79 2 140 -94 231 -37 36 -73 70 -79 77 -112 116 -428 430 -450 445 -36 27 -91
37 -138 25z"/>
<path d="M6805 8430 c-17 -4 -39 -11 -50 -17 -34 -19 -609 -600 -627 -635 -79
-147 100 -304 241 -212 35 24 591 582 614 617 74 115 -41 275 -178 247z"/>
<path d="M4755 7543 c-49 -5 -165 -25 -225 -38 -14 -4 -35 -8 -46 -11 -37 -7
-224 -85 -283 -117 -328 -178 -573 -473 -690 -829 -43 -131 -57 -206 -65 -348
-3 -41 -5 -75 -6 -75 -6 0 -3 -108 3 -112 4 -2 4 -10 0 -16 -10 -17 -11 -47
-2 -47 5 0 5 -10 1 -22 -4 -13 -6 -36 -5 -53 4 -39 4 -38 2 -121 -2 -38 0 -75
4 -81 4 -5 4 -13 0 -16 -10 -10 -9 -86 1 -80 5 4 6 1 2 -6 -11 -17 -13 -111
-3 -111 4 0 5 -6 1 -12 -11 -17 -12 -48 -3 -54 4 -2 4 -18 -1 -34 -5 -19 -5
-28 1 -25 5 4 6 -3 0 -17 -4 -13 -5 -32 -1 -43 4 -11 5 -24 3 -28 -9 -15 -9
-107 0 -107 4 0 5 -6 1 -12 -11 -17 -12 -48 -3 -54 4 -2 4 -18 -1 -34 -5 -19
-5 -28 1 -25 5 4 6 -3 1 -17 -4 -13 -6 -43 -5 -68 4 -58 4 -53 2 -136 -2 -38
0 -75 4 -81 4 -5 4 -13 0 -16 -3 -4 -6 -28 -7 -54 l-1 -48 -141 -1 c-161 -1
-195 -11 -240 -69 -73 -96 -22 -235 97 -264 19 -5 806 -8 1749 -7 1350 2 1721
5 1745 15 67 28 102 82 103 157 0 54 -15 84 -61 126 -39 35 -82 43 -233 42
-119 -1 -124 0 -125 20 0 12 -2 379 -3 816 -2 437 -6 815 -9 840 -9 76 -35
203 -53 255 -9 28 -18 55 -19 60 -8 39 -91 211 -124 261 -17 25 -31 47 -31 50
0 3 -12 22 -27 42 -16 20 -31 41 -35 47 -78 105 -265 277 -345 318 -17 9 -33
20 -35 24 -8 20 -319 162 -368 168 -3 1 -18 4 -35 8 -172 41 -344 55 -490 40z"/>
<path d="M2112 6479 c-29 -4 -65 -15 -80 -25 -102 -66 -101 -215 1 -282 l40
-27 426 -1 c312 0 438 3 469 12 44 13 92 54 92 80 0 7 5 14 12 14 6 0 9 3 6 6
-4 3 -2 19 2 35 16 54 -30 143 -90 172 -14 7 -43 14 -65 16 -87 6 -763 6 -813
0z"/>
<path d="M6850 6482 c-97 -8 -162 -78 -162 -174 1 -59 32 -112 84 -143 31 -18
55 -19 463 -20 262 -1 443 3 464 9 31 9 100 66 102 83 0 5 3 17 5 28 16 65 3
118 -39 164 -47 51 -61 53 -486 54 -218 1 -412 1 -431 -1z"/>
<path d="M3743 3091 c-5 -3 -9 -416 -8 -918 l0 -912 118 -3 c65 -2 126 0 135
3 16 6 17 70 18 918 0 501 -2 912 -5 912 -23 5 -252 5 -258 0z"/>
<path d="M184 3041 c-2 -2 -4 -404 -4 -893 l0 -888 138 0 137 0 -2 399 -1 398
431 -1 432 -1 0 -395 0 -395 45 -5 c25 -3 86 -3 135 0 l90 5 0 890 0 890 -132
0 c-110 0 -133 -2 -135 -15 -2 -8 -4 -181 -3 -383 l1 -369 -43 4 c-24 2 -43 1
-43 -3 0 -6 -70 -2 -77 5 -2 2 -20 0 -39 -4 -19 -5 -37 -4 -40 1 -3 5 -10 7
-15 3 -12 -7 -117 -9 -124 -2 -4 3 -22 2 -41 -2 -20 -5 -34 -4 -34 2 0 5 -6 5
-16 0 -9 -5 -34 -6 -55 -2 -21 4 -39 4 -39 0 0 -3 -17 -5 -37 -2 -21 2 -42 3
-48 3 -5 0 -35 -1 -66 -2 -30 -1 -61 1 -67 5 -6 3 -13 2 -17 -4 -4 -6 -12 -7
-18 -3 -7 4 -19 8 -27 8 -15 0 -15 -5 -20 705 l0 55 -131 0 c-71 0 -132 -1
-135 -4z"/>
<path d="M6299 3035 c-1 -5 -2 -407 -3 -892 l-1 -882 118 -3 c65 -2 126 0 136
3 16 7 17 48 17 653 -1 355 2 646 5 646 3 0 14 -19 25 -42 10 -24 21 -45 24
-48 3 -3 41 -75 84 -160 149 -292 176 -343 189 -358 6 -8 11 -18 11 -21 -2 -8
8 -35 15 -41 4 -3 38 -68 78 -145 39 -77 82 -160 95 -185 l23 -45 104 0 104 0
27 50 c15 28 75 145 134 260 60 116 113 216 118 223 6 6 7 12 3 12 -4 0 -3 6
3 13 5 6 63 116 127 242 65 127 121 234 126 239 5 6 9 -271 9 -642 l0 -652
135 0 135 0 0 893 0 892 -155 0 c-88 0 -158 -4 -164 -10 -5 -6 -72 -134 -149
-286 -77 -152 -144 -284 -150 -295 -5 -10 -18 -37 -29 -59 -11 -22 -30 -57
-41 -77 -12 -21 -18 -38 -14 -38 4 0 3 -4 -3 -8 -5 -4 -56 -98 -112 -210 -65
-130 -104 -198 -109 -190 -5 7 -33 62 -64 123 -31 60 -62 120 -68 133 -7 12
-16 30 -21 40 -11 23 -361 711 -409 804 l-37 73 -158 0 c-97 0 -157 -4 -158
-10z"/>
<path d="M2628 2555 c-2 -2 -23 -5 -48 -8 -150 -20 -290 -95 -385 -208 -127
-150 -175 -385 -130 -630 19 -99 87 -221 171 -304 84 -83 146 -119 261 -151
72 -20 104 -23 202 -20 128 4 176 14 259 53 73 35 127 76 185 142 44 51 117
179 117 205 0 9 -38 12 -134 13 l-133 0 -18 -34 c-53 -97 -152 -155 -274 -158
-70 -1 -140 11 -157 28 -4 4 -16 7 -26 7 -10 0 -18 5 -18 10 0 6 -5 10 -10 10
-25 0 -106 84 -126 129 -9 20 -20 44 -25 53 -10 19 -21 70 -23 108 l-1 25 481
1 c264 0 486 4 493 8 27 17 6 265 -28 341 -5 11 -15 35 -23 53 -7 17 -16 32
-20 32 -5 0 -8 5 -8 11 0 13 -59 88 -99 125 -97 92 -245 152 -389 157 -51 2
-93 3 -94 2z m199 -250 c107 -38 182 -137 200 -262 l4 -32 -351 0 c-284 0
-352 3 -356 14 -6 14 17 90 40 133 46 86 155 155 268 169 73 10 123 4 195 -22z"/>
<path d="M5167 2554 c-1 -1 -24 -4 -52 -7 -88 -10 -155 -41 -241 -111 -28 -22
-63 -56 -77 -75 -15 -19 -27 -30 -28 -25 -5 57 -18 150 -25 174 -3 13 -24 15
-116 14 -62 -1 -116 -2 -120 -3 -5 0 -7 -58 -6 -129 1 -70 -1 -133 -6 -140 -4
-6 -4 -12 1 -12 10 0 10 -91 -1 -108 -4 -6 -4 -12 1 -12 10 0 10 -91 -1 -108
-4 -6 -4 -12 1 -12 10 0 10 -91 -1 -108 -4 -6 -4 -12 1 -12 10 0 10 -91 -1
-108 -4 -6 -4 -12 1 -12 10 0 10 -91 -1 -108 -4 -6 -4 -12 1 -12 10 0 10 -91
-1 -108 -4 -6 -4 -12 1 -12 10 0 10 -91 -1 -108 -4 -6 -4 -12 1 -12 10 0 10
-91 -1 -108 -4 -6 -4 -12 1 -12 10 0 10 -91 -1 -108 -4 -6 -4 -12 1 -12 9 0 8
-422 -1 -446 -6 -15 1 -16 182 -16 46 0 85 2 89 5 3 3 5 170 5 371 l1 366 61
-63 c34 -34 83 -73 110 -86 63 -31 154 -58 189 -57 15 1 27 -1 27 -5 0 -3 10
-5 23 -3 12 2 54 5 92 8 82 5 99 8 171 35 76 29 142 71 205 131 31 30 98 121
105 143 3 12 12 29 19 37 16 20 54 154 59 210 2 25 5 50 6 55 1 6 2 12 1 15
-1 3 -3 43 -5 90 -14 297 -238 560 -507 595 -54 8 -157 13 -162 9z m170 -271
c107 -53 202 -178 219 -288 8 -53 8 -160 0 -209 -20 -122 -128 -257 -236 -295
-70 -25 -175 -32 -247 -18 -209 44 -330 255 -292 507 11 71 49 164 78 192 11
9 21 21 22 25 7 15 96 83 109 83 7 0 22 8 33 18 15 12 18 13 12 2 -7 -12 -6
-13 6 -3 22 18 57 22 153 17 70 -4 100 -10 143 -31z"/>
<path d="M9145 2549 c-27 -4 -60 -10 -72 -13 -13 -3 -33 -8 -45 -11 -53 -11
-171 -81 -226 -134 -133 -127 -192 -267 -198 -476 -7 -238 68 -419 231 -555
64 -53 154 -95 250 -116 60 -13 254 -13 308 0 175 41 334 176 401 340 27 65
29 64 -111 62 -130 -1 -153 -6 -153 -31 0 -8 -24 -38 -53 -67 -68 -69 -146
-97 -252 -93 -111 5 -228 62 -276 135 -13 19 -27 37 -30 40 -10 7 -50 132 -45
138 3 2 1 15 -4 28 -5 13 -6 25 -2 26 4 1 224 2 490 3 265 1 485 5 488 8 12
12 8 201 -6 257 -15 65 -56 160 -92 212 -44 64 -187 188 -217 188 -4 0 -25 8
-47 19 -81 38 -229 56 -339 40z m218 -236 c23 -8 56 -23 74 -34 33 -21 113
-105 113 -120 0 -4 5 -20 12 -36 12 -30 15 -44 20 -83 l3 -25 -356 -1 -357 -2
5 32 c18 121 117 230 248 272 52 17 185 15 238 -3z"/>
</g>
</svg>
